<svg width="23" height="26" viewBox="0 0 23 26" fill="none" xmlns="http://www.w3.org/2000/svg">
<g clip-path="url(#clip0_5_12)">
<path d="M5.59132 6.00879C5.64464 6.32461 5.91945 6.5625 6.24757 6.5625H6.92433C7.32628 6.5625 7.6462 6.21387 7.59288 5.82422C7.43702 4.66758 6.92023 3.60117 6.09171 2.76035C5.50109 2.15742 5.12374 1.39453 5.0089 0.566016C4.96378 0.241992 4.68488 0 4.34855 0H3.67589C3.27394 0 2.96222 0.348633 3.00734 0.738281C3.1673 2.04668 3.74562 3.25254 4.67257 4.2C5.16476 4.70039 5.48058 5.32793 5.59132 6.00879ZM10.1851 6.00879C10.2384 6.32461 10.5132 6.5625 10.8413 6.5625H11.5181C11.92 6.5625 12.24 6.21387 12.1866 5.82422C12.0308 4.66758 11.514 3.60117 10.6855 2.76035C10.0948 2.15742 9.71749 1.39453 9.60265 0.566016C9.55753 0.241992 9.27863 0 8.9423 0H8.26964C7.86769 0 7.55187 0.348633 7.60109 0.738281C7.76105 2.04668 8.33937 3.25254 9.26632 4.2C9.75851 4.70039 10.0743 5.32793 10.1851 6.00879ZM16.7845 7.875H1.69073C0.964758 7.875 0.378235 8.46152 0.378235 9.1875V17.0625C0.378235 19.2363 2.14191 21 4.31573 21H12.1907C14.3646 21 16.1282 19.2363 16.1282 17.0625H16.7845C19.3193 17.0625 21.3782 15.0035 21.3782 12.4688C21.3782 9.93398 19.3193 7.875 16.7845 7.875ZM16.7845 14.4375H16.1282V10.5H16.7845C17.8714 10.5 18.7532 11.3818 18.7532 12.4688C18.7532 13.5557 17.8714 14.4375 16.7845 14.4375Z" fill="#60A5FA"/>
</g>
<defs>
<clipPath id="clip0_5_12">
<rect width="21" height="21" fill="white" transform="translate(0.378235)"/>
</clipPath>
</defs>
</svg>
