<svg width="23" height="26" viewBox="0 0 23 26" fill="none" xmlns="http://www.w3.org/2000/svg">
<g clip-path="url(#clip0_5_15)">
<path d="M19.8101 6.22278C19.8235 6.40932 19.8235 6.5959 19.8235 6.78244C19.8235 12.4721 15.4929 19.028 7.57792 19.028C5.13945 19.028 2.87424 18.3217 0.968781 17.0959C1.31524 17.1358 1.64833 17.1492 2.00812 17.1492C4.02014 17.1492 5.87232 16.4696 7.35139 15.3104C5.45925 15.2704 3.87359 14.0312 3.32726 12.3256C3.59378 12.3655 3.86026 12.3922 4.14011 12.3922C4.52652 12.3922 4.91297 12.3389 5.27271 12.2456C3.30064 11.8459 1.82154 10.1136 1.82154 8.02164V7.96836C2.39448 8.28816 3.06078 8.48803 3.76695 8.51465C2.60768 7.74179 1.8482 6.42265 1.8482 4.93026C1.8482 4.13078 2.06135 3.39791 2.43447 2.75831C4.55314 5.36998 7.73779 7.07554 11.3088 7.26212C11.2422 6.94232 11.2022 6.60923 11.2022 6.2761C11.2022 3.90425 13.121 1.97217 15.5062 1.97217C16.7454 1.97217 17.8646 2.49184 18.6508 3.3313C19.6235 3.14476 20.5562 2.78497 21.3824 2.29197C21.0626 3.29135 20.383 4.13082 19.4903 4.66378C20.3564 4.57055 21.1959 4.33065 21.9687 3.99756C21.3825 4.85032 20.6496 5.6098 19.8101 6.22278Z" fill="#60A5FA"/>
</g>
<defs>
<clipPath id="clip0_5_15">
<rect width="21" height="21" fill="white" transform="translate(0.968781)"/>
</clipPath>
</defs>
</svg>
